<svg xmlns="http://www.w3.org/2000/svg" width="26" height="26" fill="none">
  <path fill="#F7FBFB" d="M12.06.716a.976.976 0 0 1 1.88 0l2.391 7.706a.995.995 0 0 0 .941.716h7.737c.958 0 1.357 1.284.581 1.874l-6.259 4.763a1.064 1.064 0 0 0-.359 1.158l2.39 7.706c.297.955-.746 1.748-1.522 1.158l-6.258-4.762a.953.953 0 0 0-1.164 0L6.16 25.797c-.776.59-1.819-.203-1.523-1.158l2.391-7.706a1.064 1.064 0 0 0-.36-1.158L.41 11.012c-.776-.59-.377-1.874.581-1.874h7.737a.995.995 0 0 0 .94-.716L12.06.716Z"/>
</svg>
