<svg width="40" height="37" viewBox="0 0 40 37" fill="none" xmlns="http://www.w3.org/2000/svg">
  <g filter="url(#filter0_d_4547_190)">
    <path d="M19.99 0.333496C16.6936 0.333496 13.4713 1.31098 10.7305 3.14234C7.98968 4.97369 5.85347 7.57667 4.59201 10.6221C3.33055 13.6675 3.00049 17.0187 3.64358 20.2517C4.28667 23.4847 5.87401 26.4544 8.20489 28.7853C10.5358 31.1162 13.5055 32.7035 16.7385 33.3466C19.9715 33.9897 23.3226 33.6596 26.3681 32.3982C29.4135 31.1367 32.0165 29.0005 33.8478 26.2597C35.6792 23.5188 36.6567 20.2965 36.6567 17.0002C36.6567 14.8115 36.2256 12.6442 35.388 10.6221C34.5504 8.60001 33.3228 6.76269 31.7751 5.21505C30.2275 3.66741 28.3901 2.43975 26.3681 1.60217C24.346 0.764592 22.1787 0.333496 19.99 0.333496ZM25.29 25.5868C25.2278 25.7425 25.133 25.8831 25.012 25.9992C24.8909 26.1152 24.7465 26.204 24.5883 26.2595C24.4301 26.3151 24.2618 26.3362 24.0948 26.3214C23.9278 26.3065 23.7659 26.2561 23.62 26.1735L19.095 22.6568L16.1917 25.3368C16.1243 25.3866 16.0455 25.4186 15.9625 25.43C15.8795 25.4413 15.7949 25.4317 15.7167 25.4018L16.2733 20.4202L16.29 20.4352L16.3017 20.3368C16.3017 20.3368 24.4433 12.9235 24.775 12.6085C25.1117 12.2935 25 12.2252 25 12.2252C25.02 11.8418 24.3983 12.2252 24.3983 12.2252L13.61 19.1652L9.11833 17.6352C9.11833 17.6352 8.42833 17.3885 8.36333 16.8435C8.295 16.3035 9.14 16.0102 9.14 16.0102L27.0017 8.9135C27.0017 8.9135 28.47 8.26016 28.47 9.3435L25.29 25.5868Z" fill="#F7FBFB" />
    <path d="M25.7543 25.7723L25.7717 25.7288L25.7807 25.6829L28.9607 9.43956L28.97 9.39198V9.3435C28.97 8.94902 28.8273 8.60796 28.5165 8.40231C28.242 8.22067 27.9242 8.20647 27.6979 8.22369C27.4595 8.24181 27.2343 8.30204 27.0779 8.3524C26.9975 8.37828 26.9302 8.40322 26.8822 8.42207C26.8581 8.43152 26.8386 8.43954 26.8244 8.44549L26.81 8.45162L8.96262 15.5426L8.95725 15.5446C8.94781 15.5481 8.93528 15.5528 8.92011 15.5588C8.88986 15.5707 8.84862 15.5879 8.80014 15.6102C8.70486 15.654 8.57357 15.7214 8.44076 15.8137C8.21173 15.9728 7.79615 16.3364 7.86707 16.9045C7.92464 17.3813 8.24783 17.6876 8.47344 17.8497C8.59332 17.9359 8.70825 17.998 8.79257 18.0386C8.83525 18.0591 8.87149 18.0749 8.89843 18.0859C8.91194 18.0915 8.9232 18.0959 8.93189 18.0992L8.94299 18.1034L8.94703 18.1049L8.94866 18.1055L8.94937 18.1057L8.94971 18.1059C8.94987 18.1059 8.95002 18.106 9.11833 17.6352L8.95 18.106L8.95711 18.1085L13.4488 19.6385L13.6774 19.7163L13.8805 19.5857L22.3936 14.1093C21.6936 14.7479 20.8831 15.4868 20.0772 16.2212C19.0388 17.1675 18.0107 18.104 17.2423 18.8039L16.3155 19.648L16.2396 19.7171L15.8845 19.3976L15.7764 20.3646L15.2198 25.3463L15.1768 25.7312L15.5387 25.8691C15.6952 25.9287 15.8643 25.9481 16.0303 25.9254C16.1962 25.9026 16.3539 25.8386 16.4887 25.7391L16.5107 25.7228L16.5308 25.7042L19.1228 23.3117L23.3132 26.5683L23.342 26.5907L23.3737 26.6086C23.5817 26.7264 23.8125 26.7982 24.0506 26.8194C24.2886 26.8405 24.5285 26.8105 24.754 26.7313C24.9795 26.6521 25.1854 26.5255 25.358 26.3601C25.5305 26.1947 25.6657 25.9943 25.7543 25.7723ZM11.0083 3.55807C13.6669 1.78165 16.7925 0.833496 19.99 0.833496C22.113 0.833496 24.2153 1.25166 26.1767 2.06411C28.1381 2.87656 29.9203 4.06739 31.4216 5.5686C32.9228 7.06982 34.1136 8.85202 34.9261 10.8134C35.7385 12.7749 36.1567 14.8771 36.1567 17.0002C36.1567 20.1976 35.2085 23.3233 33.4321 25.9819C31.6557 28.6405 29.1308 30.7126 26.1767 31.9362C23.2226 33.1598 19.9721 33.48 16.836 32.8562C13.7 32.2324 10.8194 30.6927 8.55844 28.4317C6.29749 26.1708 4.75777 23.2901 4.13397 20.1541C3.51018 17.0181 3.83033 13.7675 5.05395 10.8134C6.27756 7.85938 8.34969 5.33449 11.0083 3.55807Z" stroke="black" />
  </g>
  <defs>
    <filter id="filter0_d_4547_190" x="-0.676674" y="0.333496" width="41.3333" height="41.3335" filterUnits="userSpaceOnUse" color-interpolation-filters="sRGB">
      <feFlood flood-opacity="0" result="BackgroundImageFix" />
      <feColorMatrix in="SourceAlpha" type="matrix" values="0 0 0 0 0 0 0 0 0 0 0 0 0 0 0 0 0 0 127 0" result="hardAlpha" />
      <feOffset dy="4" />
      <feGaussianBlur stdDeviation="2" />
      <feComposite in2="hardAlpha" operator="out" />
      <feColorMatrix type="matrix" values="0 0 0 0 0 0 0 0 0 0 0 0 0 0 0 0 0 0 0.25 0" />
      <feBlend mode="normal" in2="BackgroundImageFix" result="effect1_dropShadow_4547_190" />
      <feBlend mode="normal" in="SourceGraphic" in2="effect1_dropShadow_4547_190" result="shape" />
    </filter>
  </defs>
</svg>